<?xml version="1.0" encoding="UTF-8"?>
<svg version="1.1" xmlns="http://www.w3.org/2000/svg" width="512" height="512">
<path d="M0 0 C5.38862968 4.22640411 10.19285446 9.13654629 15 14 C16.24110632 15.25237447 17.4832705 16.50370159 18.7265625 17.75390625 C19.26877441 18.30248291 19.81098633 18.85105957 20.36962891 19.41625977 C22.0640332 21.06220176 23.82310441 22.59811187 25.625 24.125 C45.96778641 41.83519052 45.96778641 41.83519052 47.390625 53.08984375 C47.82322777 61.51576593 46.38255535 68.06674846 40.69824219 74.46533203 C37.69056779 77.64346148 34.53348337 80.65659502 31.36279297 83.67041016 C29.69358754 85.29894702 28.181895 87.02310754 26.6875 88.8125 C23.18553184 92.93704028 19.34134803 96.69570826 15.5 100.5 C9.8249973 106.08544409 9.8249973 106.08544409 4.5 112 C0.50285581 116.74660873 -3.98123309 121.03021627 -8.40820312 125.37109375 C-11.54505046 128.46541865 -14.56535524 131.59804645 -17.44140625 134.9375 C-21.23483016 139.33697389 -25.3071012 143.41872763 -29.4375 147.5 C-30.16904297 148.22703125 -30.90058594 148.9540625 -31.65429688 149.703125 C-33.43389824 151.47109499 -35.21580918 153.23666378 -37 155 C-36.60167969 156.1859375 -36.20335937 157.371875 -35.79296875 158.59375 C-26.82895914 185.71453901 -24.25345946 214.16904979 -32 242 C-32.30808594 243.13179687 -32.61617188 244.26359375 -32.93359375 245.4296875 C-33.57197807 247.63501515 -34.27398316 249.82194947 -35 252 C-34.52111328 252.40669922 -34.04222656 252.81339844 -33.54882812 253.23242188 C-27.51023781 258.42923387 -21.93463814 264.00280014 -16.35546875 269.68359375 C-13.00697477 273.0688171 -9.64339331 276.36445258 -6.03125 279.46875 C-0.62579389 284.11946199 4.293088 289.24689496 9.2890625 294.328125 C13.39227898 298.47364268 17.57224692 302.41704045 21.99511719 306.21777344 C25.70523329 309.51585521 29.14763811 313.08509563 32.625 316.625 C38.27016341 322.42944974 38.27016341 322.42944974 44.34765625 327.765625 C46.76206513 329.79956002 48.23274671 331.43043753 49.8125 334.125 C50.21082031 334.78757812 50.60914063 335.45015625 51.01953125 336.1328125 C54.0817593 341.96446592 53.63893052 348.6038977 53 355 C51.7165609 358.61247718 50.07562276 361.78278472 48 365 C47.34 365 46.68 365 46 365 C45.75467529 365.57202148 45.50935059 366.14404297 45.2565918 366.73339844 C43.78524527 369.38736797 42.06447599 371.14499183 39.89453125 373.265625 C39.07533203 374.07386719 38.25613281 374.88210938 37.41210938 375.71484375 C36.55423828 376.55144531 35.69636719 377.38804687 34.8125 378.25 C28.95935488 383.98167324 23.31486361 389.76458519 18 396 C11.92818098 402.86924366 5.91998303 408.24666883 -3.46875 409.44140625 C-12.56112723 409.74254268 -18.71842158 408.07089809 -25.5703125 402.0390625 C-26.76475261 400.91106322 -27.94935054 399.77257044 -29.125 398.625 C-29.7631665 398.01648193 -30.40133301 397.40796387 -31.05883789 396.78100586 C-36.14938 391.90092544 -41.14870094 386.92362332 -46.08056641 381.88330078 C-48.90942124 379.0079159 -51.79637749 376.27501772 -54.85546875 373.64453125 C-59.42659661 369.69596678 -63.64315935 365.43108347 -67.875 361.125 C-69.37008161 359.60449184 -70.86736644 358.08614589 -72.3671875 356.5703125 C-73.34341064 355.57668701 -73.34341064 355.57668701 -74.33935547 354.56298828 C-75.93142515 352.91455548 -75.93142515 352.91455548 -78 352 C-78 351.34 -78 350.68 -78 350 C-78.56912109 349.75757568 -79.13824219 349.51515137 -79.72460938 349.26538086 C-82.43340376 347.75897729 -84.23919635 345.96963942 -86.40625 343.75390625 C-87.23253906 342.91666016 -88.05882812 342.07941406 -88.91015625 341.21679688 C-89.76480469 340.34087891 -90.61945313 339.46496094 -91.5 338.5625 C-93.19560613 336.83236796 -94.89344007 335.10441578 -96.59375 333.37890625 C-97.34333984 332.6113501 -98.09292969 331.84379395 -98.86523438 331.05297852 C-101.74183032 328.27792574 -101.74183032 328.27792574 -105 326 C-107.06688558 325.97316058 -107.06688558 325.97316058 -109.15234375 326.65234375 C-109.9397998 326.8622998 -110.72725586 327.07225586 -111.53857422 327.28857422 C-112.35084473 327.52334473 -113.16311523 327.75811523 -114 328 C-115.58433987 328.41908764 -117.16897536 328.83705932 -118.75390625 329.25390625 C-121.16517372 329.90724398 -123.57476554 330.56589554 -125.98242188 331.23242188 C-147.65725964 337.07950525 -174.81651486 336.19681829 -195.921875 328.453125 C-198.79673127 327.82627664 -200.20717865 327.96912035 -203 329 C-205.45332972 330.95502054 -207.5896065 333.16787312 -209.75 335.4375 C-210.33910156 336.03626953 -210.92820313 336.63503906 -211.53515625 337.25195312 C-214.64479584 340.3492589 -214.64479584 340.3492589 -217 344 C-217.66 344 -218.32 344 -219 344 C-219 344.66 -219 345.32 -219 346 C-219.66 346 -220.32 346 -221 346 C-221.24999756 346.57669434 -221.49999512 347.15338867 -221.75756836 347.74755859 C-223.17147494 350.31087205 -224.78512074 351.99597808 -226.87890625 354.0390625 C-227.63494141 354.78414063 -228.39097656 355.52921875 -229.16992188 356.296875 C-229.95947266 357.06515625 -230.74902344 357.8334375 -231.5625 358.625 C-233.12847891 360.15663169 -234.69238939 361.69038195 -236.25390625 363.2265625 C-236.94814697 363.90283691 -237.6423877 364.57911133 -238.35766602 365.27587891 C-240.07956495 366.91488551 -240.07956495 366.91488551 -241 369 C-241.66 369 -242.32 369 -243 369 C-243.38828979 369.87833496 -243.38828979 369.87833496 -243.78442383 370.77441406 C-245.09221724 373.1688396 -246.49736101 374.71093329 -248.44921875 376.609375 C-249.13306641 377.28226562 -249.81691406 377.95515625 -250.52148438 378.6484375 C-251.23626953 379.34195312 -251.95105469 380.03546875 -252.6875 380.75 C-257.42540355 385.36934619 -261.98204399 390.03852799 -266.30053711 395.05371094 C-269.07119559 398.22677363 -271.98455756 401.24723288 -274.9375 404.25 C-275.50662109 404.848125 -276.07574219 405.44625 -276.66210938 406.0625 C-282.62478865 412.11217684 -288.86518811 415.58830604 -297.4296875 416.0859375 C-312.04679663 415.59721957 -321.20896553 403.95000529 -330.75390625 394.25 C-333.10824807 391.86946151 -335.50429327 389.60088835 -338.0625 387.4375 C-357.93699389 370.40837834 -357.93699389 370.40837834 -359.390625 358.91015625 C-359.78798903 351.17058863 -358.61886905 345.27768868 -354 339 C-351.3949972 336.14212328 -348.73611436 333.47906965 -345.9140625 330.8359375 C-343.6762566 328.72459616 -341.65496384 326.49609453 -339.6484375 324.1640625 C-335.34470204 319.17614948 -330.66115844 314.61017839 -325.9609375 310 C-322.04013229 306.12460953 -318.34324905 302.14503915 -314.74609375 297.96875 C-311.22909547 294.00327543 -307.39038303 290.35140606 -303.60546875 286.64453125 C-300.46553101 283.54359895 -297.43914439 280.40717818 -294.55859375 277.0625 C-290.76516984 272.66302611 -286.6928988 268.58127237 -282.5625 264.5 C-281.83095703 263.77296875 -281.09941406 263.0459375 -280.34570312 262.296875 C-278.56610176 260.52890501 -276.78419082 258.76333622 -275 257 C-275.39832031 255.8140625 -275.79664063 254.628125 -276.20703125 253.40625 C-285.17104086 226.28546099 -287.74654054 197.83095021 -280 170 C-279.69191406 168.86820313 -279.38382812 167.73640625 -279.06640625 166.5703125 C-278.42802193 164.36498485 -277.72601684 162.17805053 -277 160 C-277.47888672 159.59330078 -277.95777344 159.18660156 -278.45117188 158.76757812 C-284.48976219 153.57076613 -290.06536186 147.99719986 -295.64453125 142.31640625 C-299.00328124 138.92081439 -302.37852424 135.61582231 -306 132.5 C-311.16560744 128.05564748 -315.87292293 123.17492912 -320.64453125 118.31640625 C-324.00328124 114.92081439 -327.37852424 111.61582231 -331 108.5 C-336.16560744 104.05564748 -340.87292293 99.17492912 -345.64453125 94.31640625 C-349.10688561 90.81607359 -352.59154298 87.44405392 -356.34375 84.25390625 C-361.8023778 79.5387812 -364.52275691 74.75459386 -365.44140625 67.52734375 C-365.83373445 55.6942189 -362.41357285 50.11336154 -354.56225586 41.71142578 C-350.51870287 37.47430906 -346.37175596 33.34025842 -342.20556641 29.22412109 C-339.48390133 26.52557372 -336.86625059 23.78730703 -334.375 20.875 C-319.5915864 3.6816382 -319.5915864 3.6816382 -309.44921875 2.6328125 C-299.91479954 2.31216932 -293.62869481 3.63332585 -286.4296875 9.9609375 C-285.23524739 11.08893678 -284.05064946 12.22742956 -282.875 13.375 C-282.2368335 13.98351807 -281.59866699 14.59203613 -280.94116211 15.21899414 C-275.85062 20.09907456 -270.85129906 25.07637668 -265.91943359 30.11669922 C-263.09057876 32.9920841 -260.20362251 35.72498228 -257.14453125 38.35546875 C-252.57340339 42.30403322 -248.35684065 46.56891653 -244.125 50.875 C-242.62991839 52.39550816 -241.13263356 53.91385411 -239.6328125 55.4296875 C-238.98199707 56.09210449 -238.33118164 56.75452148 -237.66064453 57.43701172 C-236.06857485 59.08544452 -236.06857485 59.08544452 -234 60 C-234 60.66 -234 61.32 -234 62 C-233.43087891 62.24242432 -232.86175781 62.48484863 -232.27539062 62.73461914 C-229.56659624 64.24102271 -227.76080365 66.03036058 -225.59375 68.24609375 C-224.35431641 69.50196289 -224.35431641 69.50196289 -223.08984375 70.78320312 C-222.23519531 71.65912109 -221.38054687 72.53503906 -220.5 73.4375 C-218.80439387 75.16763204 -217.10655993 76.89558422 -215.40625 78.62109375 C-214.65666016 79.3886499 -213.90707031 80.15620605 -213.13476562 80.94702148 C-211.14763188 82.85802419 -209.3605331 84.57321098 -207 86 C-202.80150485 85.40021498 -199.04296067 84.33718755 -195.015625 83.03515625 C-193.95859375 82.69355469 -192.9015625 82.35195312 -191.8125 82 C-190.84957031 81.67 -189.88664063 81.34 -188.89453125 81 C-178.27752694 77.96033918 -167.1522725 77.64000583 -156.1875 77.6875 C-154.87813477 77.69096436 -153.56876953 77.69442871 -152.21972656 77.69799805 C-139.68091741 77.83854328 -127.92757033 79.19923679 -116.078125 83.546875 C-113.20326873 84.17372336 -111.79282135 84.03087965 -109 83 C-106.54667028 81.04497946 -104.4103935 78.83212688 -102.25 76.5625 C-101.66089844 75.96373047 -101.07179688 75.36496094 -100.46484375 74.74804688 C-97.35520416 71.6507411 -97.35520416 71.6507411 -95 68 C-94.34 68 -93.68 68 -93 68 C-92.75000244 67.42330566 -92.50000488 66.84661133 -92.24243164 66.25244141 C-90.82852506 63.68912795 -89.21487926 62.00402192 -87.12109375 59.9609375 C-86.36505859 59.21585938 -85.60902344 58.47078125 -84.83007812 57.703125 C-84.04052734 56.93484375 -83.25097656 56.1665625 -82.4375 55.375 C-80.87152109 53.84336831 -79.30761061 52.30961805 -77.74609375 50.7734375 C-77.05185303 50.09716309 -76.3576123 49.42088867 -75.64233398 48.72412109 C-73.92043505 47.08511449 -73.92043505 47.08511449 -73 45 C-72.34 45 -71.68 45 -71 45 C-71 44.34 -71 43.68 -71 43 C-70.34 43 -69.68 43 -69 43 C-68.61171021 42.12166504 -68.61171021 42.12166504 -68.21557617 41.22558594 C-66.90778276 38.8311604 -65.50263899 37.28906671 -63.55078125 35.390625 C-62.52500977 34.38128906 -62.52500977 34.38128906 -61.47851562 33.3515625 C-60.76373047 32.65804687 -60.04894531 31.96453125 -59.3125 31.25 C-54.58382928 26.63965561 -50.02976494 21.98118025 -45.7175293 16.97753906 C-33.34969732 2.73739138 -19.60770087 -11.08366342 0 0 Z " fill="#FFFFFF" transform="translate(412,50)"/>
<path d="M0 0 C1.06412109 -0.02900391 2.12824219 -0.05800781 3.22460938 -0.08789062 C10.118019 -0.14324228 14.41969105 0.70230785 20.3125 4.3125 C21.199375 4.84875 22.08625 5.385 23 5.9375 C32.14438567 15.32903123 31.04852801 26.82864638 30.9765625 39.0625 C30.97993615 41.08691702 30.98479333 43.11133205 30.99105835 45.13574219 C30.99840372 49.36543178 30.98779961 53.59459112 30.96435547 57.82421875 C30.93586938 63.22436742 30.9522859 68.6232733 30.98221779 74.02337646 C31.00035398 78.19980092 30.99450379 82.37593457 30.98157883 86.55236816 C30.97826227 88.54252269 30.98226972 90.5327043 30.99397659 92.52282715 C31.08892478 113.1966686 31.08892478 113.1966686 25.3125 120.3125 C17.5967581 127.51194306 10.80020403 128.67505262 0.5 128.6875 C-0.55509766 128.71199219 -1.61019531 128.73648438 -2.69726562 128.76171875 C-9.5389024 128.78729496 -13.83539367 127.88282175 -19.6875 124.3125 C-20.574375 123.77625 -21.46125 123.24 -22.375 122.6875 C-31.25244528 113.57012377 -30.47036923 102.5483906 -30.5 90.65625 C-30.52077406 88.74391811 -30.54326477 86.83160417 -30.56738281 84.91931152 C-30.6125098 80.92516941 -30.64099071 76.93137535 -30.65673828 72.93701172 C-30.67759456 67.83943276 -30.7338224 62.74301076 -30.80180359 57.64586639 C-30.85154069 53.7012232 -30.88556439 49.75656673 -30.91464233 45.8117218 C-30.92974597 43.93317461 -30.9488979 42.05465512 -30.97232056 40.17619324 C-31.23636269 16.87532346 -31.23636269 16.87532346 -24.21484375 7.84765625 C-17.07714296 0.67344548 -9.63527221 0.08597804 0 0 Z " fill="#FFFFFF" transform="translate(449.6875,191.6875)"/>
<path d="M0 0 C1.06412109 -0.02900391 2.12824219 -0.05800781 3.22460938 -0.08789062 C10.118019 -0.14324228 14.41969105 0.70230785 20.3125 4.3125 C21.199375 4.84875 22.08625 5.385 23 5.9375 C32.14438567 15.32903123 31.04852801 26.82864638 30.9765625 39.0625 C30.97993615 41.08691702 30.98479333 43.11133205 30.99105835 45.13574219 C30.99840372 49.36543178 30.98779961 53.59459112 30.96435547 57.82421875 C30.93586938 63.22436742 30.9522859 68.6232733 30.98221779 74.02337646 C31.00035398 78.19980092 30.99450379 82.37593457 30.98157883 86.55236816 C30.97826227 88.54252269 30.98226972 90.5327043 30.99397659 92.52282715 C31.08892478 113.1966686 31.08892478 113.1966686 25.3125 120.3125 C17.5967581 127.51194306 10.80020403 128.67505262 0.5 128.6875 C-0.55509766 128.71199219 -1.61019531 128.73648438 -2.69726562 128.76171875 C-9.5389024 128.78729496 -13.83539367 127.88282175 -19.6875 124.3125 C-20.574375 123.77625 -21.46125 123.24 -22.375 122.6875 C-31.25244528 113.57012377 -30.47036923 102.5483906 -30.5 90.65625 C-30.52077406 88.74391811 -30.54326477 86.83160417 -30.56738281 84.91931152 C-30.6125098 80.92516941 -30.64099071 76.93137535 -30.65673828 72.93701172 C-30.67759456 67.83943276 -30.7338224 62.74301076 -30.80180359 57.64586639 C-30.85154069 53.7012232 -30.88556439 49.75656673 -30.91464233 45.8117218 C-30.92974597 43.93317461 -30.9488979 42.05465512 -30.97232056 40.17619324 C-31.23636269 16.87532346 -31.23636269 16.87532346 -24.21484375 7.84765625 C-17.07714296 0.67344548 -9.63527221 0.08597804 0 0 Z " fill="#FFFFFF" transform="translate(56.6875,191.6875)"/>
</svg>
